<?xml version="1.0" encoding="UTF-8"?>
<svg id="Layer_1" data-name="Layer 1" xmlns="http://www.w3.org/2000/svg" xmlns:xlink="http://www.w3.org/1999/xlink" version="1.1" viewBox="0 0 438.97 123.58">
  <defs>
    <style>
      .cls-1 {
        fill: url(#linear-gradient);
      }

      .cls-1, .cls-2, .cls-3, .cls-4, .cls-5, .cls-6, .cls-7 {
        stroke-width: 0px;
      }

      .cls-2 {
        fill: #013a60;
      }

      .cls-3 {
        fill: url(#linear-gradient-4);
      }

      .cls-4 {
        fill: url(#linear-gradient-2);
      }

      .cls-5 {
        fill: url(#linear-gradient-3);
      }

      .cls-6 {
        fill: url(#linear-gradient-5);
      }

      .cls-7 {
        fill: url(#linear-gradient-6);
      }
    </style>
    <linearGradient id="linear-gradient" x1="130.77" y1="40.46" x2="103.78" y2="13.47" gradientTransform="translate(-31.57 54.46) rotate(-5)" gradientUnits="userSpaceOnUse">
      <stop offset=".51" stop-color="#013a60"/>
      <stop offset=".58" stop-color="#014368"/>
      <stop offset=".69" stop-color="#015d7f"/>
      <stop offset=".83" stop-color="#0287a4"/>
      <stop offset="1" stop-color="#04c1d6"/>
    </linearGradient>
    <linearGradient id="linear-gradient-2" x1="117.66" y1="45.88" x2="117.66" y2="2.17" gradientTransform="translate(-31.57 54.46) rotate(-5)" gradientUnits="userSpaceOnUse">
      <stop offset="0" stop-color="#013a60"/>
      <stop offset=".06" stop-color="#014368"/>
      <stop offset=".15" stop-color="#015d7f"/>
      <stop offset=".27" stop-color="#0287a4"/>
      <stop offset=".41" stop-color="#04c1d6"/>
    </linearGradient>
    <linearGradient id="linear-gradient-3" x1="-126.25" y1="142.62" x2="-153.24" y2="115.63" gradientTransform="translate(-7.17 -69.72) rotate(-175) scale(1 -1)" xlink:href="#linear-gradient"/>
    <linearGradient id="linear-gradient-4" x1="-139.37" y1="148.04" x2="-139.37" y2="104.33" gradientTransform="translate(-7.17 -69.72) rotate(-175) scale(1 -1)" xlink:href="#linear-gradient-2"/>
    <linearGradient id="linear-gradient-5" x1="85.37" y1="50.19" x2="122.63" y2="50.19" gradientUnits="userSpaceOnUse">
      <stop offset=".41" stop-color="#013a60"/>
      <stop offset="1" stop-color="#04c1d6"/>
    </linearGradient>
    <linearGradient id="linear-gradient-6" x1="123.12" y1="50.47" x2="85.85" y2="50.47" xlink:href="#linear-gradient-5"/>
  </defs>
  <g>
    <g>
      <path class="cls-1" d="M79.29,52.41c-.01-.12-6.68,4.61-7.45,10.91-.78,6.3,4.25,9.92,6.48,11.54,2.23,1.61,18.99,14.39,18.99,14.39l1.19-3-2.18-6.08-9.38-8.87-8.74-11.22,1.1-7.66Z"/>
      <path class="cls-4" d="M84.12,46.52s-4.39,4.57-3.2,10.29c.85,4.19,2.4,5.38,5.81,8.06,3.41,2.68,7.12,5.09,9.04,6.81s8.95,8.99,1.54,17.56c-.02-6.19-5.61-10.29-8.49-12.41,0,0-6.3-3.99-8.79-6.67-2.49-2.68-7.82-8.97-2.32-16.89,1.52-1.9,6.41-6.75,6.41-6.75Z"/>
    </g>
    <g>
      <path class="cls-5" d="M129.12,52.41c.01-.12,6.68,4.61,7.45,10.91.78,6.3-4.25,9.92-6.48,11.54-2.23,1.61-18.99,14.39-18.99,14.39l-1.19-3,2.18-6.08,9.38-8.87,8.74-11.22-1.1-7.66Z"/>
      <path class="cls-3" d="M124.28,46.52s4.39,4.57,3.2,10.29c-.85,4.19-2.4,5.38-5.81,8.06-3.41,2.68-7.12,5.09-9.04,6.81-1.92,1.72-8.95,8.99-1.54,17.56.02-6.19,5.61-10.29,8.49-12.41,0,0,6.3-3.99,8.79-6.67,2.49-2.68,7.82-8.97,2.32-16.89-1.52-1.9-6.41-6.75-6.41-6.75Z"/>
    </g>
    <path class="cls-6" d="M85.37,63.02c1.56-.01,2.58-.29,3.05-.83.47-.54.7-1.35.7-2.44v-19.52c0-1.12-.27-1.85-.8-2.2-.53-.35-1.48-.58-2.85-.69v-1.04h10.35l8.08,19.01h.34l8.04-19.01h10.36v1.04c-1.39.11-2.34.36-2.85.77-.51.41-.76,1.4-.76,2.98v18.17c0,1.51.25,2.5.76,2.97.51.47,1.46.73,2.85.78v1.04h-13.64v-1.04c1.22-.04,2.13-.24,2.75-.61.61-.37.92-1.17.92-2.42v-20.08h-.3l-10.07,24.15h-1.1l-10.17-23.67h-.18v18.57c0,1.37.25,2.37.76,3,.51.63,1.63.98,3.37,1.05v1.04h-9.61v-1.04Z"/>
    <path class="cls-7" d="M85.85,63.31c1.56-.01,2.58-.29,3.05-.83.47-.54.7-1.35.7-2.44v-19.52c0-1.12-.27-1.85-.8-2.2-.53-.35-1.48-.58-2.85-.69v-1.04h10.35l8.08,19.01h.34l8.04-19.01h10.36v1.04c-1.39.11-2.34.36-2.85.77-.51.41-.76,1.4-.76,2.98v18.17c0,1.51.25,2.5.76,2.97.51.47,1.46.73,2.85.78v1.04h-13.64v-1.04c1.22-.04,2.13-.24,2.75-.61.61-.37.92-1.17.92-2.42v-20.08h-.3l-10.07,24.15h-1.1l-10.17-23.67h-.18v18.57c0,1.37.25,2.37.76,3,.51.63,1.63.98,3.37,1.05v1.04h-9.61v-1.04Z"/>
  </g>
  <g>
    <path class="cls-2" d="M145.62,71.97c.9-.11,1.51-.3,1.85-.58.54-.43.82-1.23.82-2.4v-14.45c0-1.03-.18-1.73-.55-2.11-.37-.37-1.07-.62-2.11-.75v-1.18h9.31v3.53c.82-1.07,1.61-1.9,2.38-2.5,1.42-1.07,3.01-1.61,4.75-1.61,1.97,0,3.5.46,4.59,1.39.61.53,1.18,1.39,1.73,2.59h.34c.93-1.14,1.82-1.99,2.66-2.57,1.34-.94,2.81-1.42,4.39-1.42,1.73,0,3.25.55,4.57,1.66,1.32,1.1,1.98,2.85,1.98,5.23v12.36c0,1.14.18,1.86.55,2.17.37.31,1.02.52,1.94.61v1.18h-11.67v-1.18c.9-.13,1.52-.35,1.87-.66.35-.31.53-1.02.53-2.12v-11.91c0-1.28-.19-2.27-.56-2.98-.38-.7-1.09-1.06-2.15-1.06-.85,0-1.74.39-2.68,1.16-.94.78-1.4,1.32-1.4,1.62v13.16c0,1.07.16,1.76.48,2.06.32.3.92.54,1.8.72v1.18h-11.5v-1.18c.86-.11,1.48-.32,1.85-.64.37-.31.55-1.03.55-2.15v-11.91c0-1.25-.18-2.23-.53-2.95-.35-.72-1.08-1.08-2.18-1.08-1.01,0-1.94.41-2.81,1.24-.86.82-1.3,1.34-1.3,1.55v13.16c0,1.07.15,1.76.46,2.06.3.3.9.54,1.8.72v1.18h-11.76v-1.18Z"/>
    <path class="cls-2" d="M190.22,63.29c2.13-1.3,5.47-2.61,10.01-3.92v-3.58c0-1.46-.31-2.53-.92-3.23-.62-.7-1.71-1.04-3.28-1.04-.88,0-1.6.16-2.17.49-.57.33-.85.74-.85,1.24,0,.19.03.35.1.48.06.13.16.26.29.41l.29.34c.22.27.4.57.54.9.14.33.2.68.2,1.04,0,.93-.31,1.64-.92,2.15-.62.5-1.33.76-2.15.76-.94,0-1.75-.28-2.41-.84-.66-.56-1-1.36-1-2.42,0-1.88.89-3.38,2.66-4.48,1.78-1.1,3.96-1.65,6.55-1.65,2.78,0,5.11.54,6.99,1.61,1.86,1.09,2.78,3.09,2.78,6v11.91c0,.35.09.65.28.9.18.25.39.37.61.37.19,0,.36-.04.52-.11.15-.07.39-.27.71-.59l.74,1.03c-.96,1.12-2.02,1.9-3.19,2.35-.74.29-1.51.43-2.33.43-1.46,0-2.52-.42-3.19-1.27-.38-.48-.66-1.19-.84-2.14-1.36,1.36-2.9,2.32-4.61,2.89-1.04.35-2.06.53-3.07.53-1.34,0-2.6-.43-3.77-1.29-1.17-.86-1.75-2.19-1.75-4,0-2.21,1.06-3.97,3.19-5.27ZM198.79,69.62c.38-.29.84-.74,1.37-1.35v-7.2c-1.31.32-2.46.83-3.46,1.52-1.68,1.17-2.52,2.66-2.52,4.48,0,1.08.24,1.89.73,2.44.49.55,1.04.83,1.64.83.8,0,1.54-.24,2.23-.72Z"/>
    <path class="cls-2" d="M211.15,71.97c.86-.21,1.48-.48,1.84-.83.36-.34.54-1.06.54-2.15v-25.06c0-1.04-.17-1.72-.5-2.04-.34-.32-.96-.58-1.87-.79v-1.18h9.22v21.17l6.24-6.27c.37-.37.63-.72.79-1.04.16-.33.24-.59.24-.78,0-.5-.22-.82-.66-.98-.44-.16-1.19-.29-2.24-.38v-1.13h10.54v1.13c-1.01.13-1.81.3-2.4.53-1.06.42-2.08,1.12-3.07,2.11l-3.82,3.86,9.51,13.08c.19.27.38.45.55.54.18.09.41.16.7.2v1.18h-11.47v-1.18c.7-.03,1.22-.12,1.55-.26.33-.14.49-.37.49-.67,0-.16-.07-.38-.2-.66-.14-.28-.47-.8-1-1.55l-4.66-6.6-1.08,1.2v5.57c0,1.1.14,1.84.41,2.21.27.37.97.62,2.09.77v1.18h-11.71v-1.18Z"/>
    <path class="cls-2" d="M241.8,53.07c2.01-2.09,4.43-3.13,7.27-3.13,1.62,0,3.14.42,4.57,1.27,1.43.85,2.52,2.02,3.29,3.53.58,1.14.98,2.61,1.2,4.42.11.85.17,1.5.17,1.94h-12.55c.11,1.97.43,3.67.96,5.11.96,2.7,2.65,4.06,5.08,4.06,1.15,0,2.25-.36,3.27-1.08.63-.43,1.4-1.16,2.33-2.18l1.13.7c-1.52,2.5-3.28,4.23-5.29,5.21-1.3.62-2.79.94-4.47.94-2.42,0-4.69-.95-6.8-2.86-2.12-1.9-3.17-4.95-3.17-9.12,0-3.78,1.01-6.71,3.02-8.8ZM252.25,59.27c-.03-2.9-.26-4.92-.67-6.07s-1.25-1.73-2.51-1.73-2.16.66-2.64,1.99c-.47,1.33-.74,3.26-.81,5.81h6.63Z"/>
    <path class="cls-2" d="M260.32,71.97c.86-.14,1.46-.36,1.78-.65.48-.43.72-1.21.72-2.33v-14.45c0-1-.17-1.68-.5-2.05-.34-.36-1-.63-1.99-.81v-1.18h9.43v18.68c0,1.07.16,1.76.48,2.06.32.3.92.54,1.8.72v1.18h-11.71v-1.18ZM263.59,40.3c.74-.74,1.64-1.12,2.7-1.12s1.93.37,2.68,1.12c.74.74,1.12,1.64,1.12,2.7s-.37,1.96-1.12,2.7c-.74.74-1.64,1.12-2.68,1.12s-1.96-.37-2.7-1.12c-.74-.74-1.12-1.64-1.12-2.7s.37-1.96,1.12-2.7Z"/>
    <path class="cls-2" d="M273.98,52.67v-1.37c.43-.4.97-.87,1.61-1.42.85-.78,1.65-1.59,2.4-2.42,1.49-1.63,2.84-3.38,4.06-5.26h1.25v8.31h4.68v2.16h-4.68v14.79c0,.69.1,1.26.31,1.73.32.72.85,1.08,1.58,1.08.64,0,1.18-.23,1.61-.68.43-.46.86-1.08,1.3-1.88l1.18.58c-.58,1.34-1.26,2.44-2.06,3.29-1.41,1.49-3.13,2.23-5.16,2.23-1.15,0-2.16-.22-3.02-.65-1.66-.83-2.5-2.34-2.51-4.54v-15.94h-2.54Z"/>
    <path class="cls-2" d="M303.1,65.71h1.37c.48,2.35,1.38,4.01,2.69,4.98,1.31.97,2.66,1.45,4.03,1.45,1.26,0,2.19-.28,2.78-.85.59-.57.89-1.32.89-2.24,0-.88-.32-1.63-.96-2.26-.35-.34-.92-.7-1.7-1.08l-3.65-1.78c-1.92-.94-3.3-1.97-4.13-3.07-.85-1.1-1.27-2.41-1.27-3.91,0-1.9.66-3.55,1.99-4.93,1.33-1.38,3.18-2.08,5.57-2.08,1.04,0,2.14.17,3.31.52,1.17.34,1.9.52,2.18.52.4,0,.68-.08.85-.25.17-.17.31-.4.42-.71h1.08v7.11h-1.25c-.46-1.66-1.22-3-2.28-4.01-1.06-1.01-2.29-1.51-3.7-1.51-1.09,0-1.9.3-2.44.91-.54.61-.8,1.26-.8,1.97,0,.58.24,1.15.72,1.73.46.59,1.34,1.2,2.64,1.82l2.69,1.3c1.66.8,2.88,1.58,3.65,2.33,1.28,1.28,1.92,2.86,1.92,4.73s-.66,3.53-1.98,5.1c-1.32,1.58-3.3,2.36-5.94,2.36-.66,0-1.32-.07-1.98-.2-.66-.14-1.48-.37-2.46-.71l-.84-.29c-.3-.11-.49-.18-.56-.19-.07-.02-.16-.02-.28-.02-.27,0-.51.11-.71.32-.2.22-.43.58-.68,1.09h-1.18v-8.14Z"/>
    <path class="cls-2" d="M325.22,53.32c2.1-2.29,4.75-3.43,7.93-3.43s5.91,1.17,7.98,3.5c2.07,2.34,3.11,5.17,3.11,8.5s-1.02,6.1-3.07,8.46c-2.05,2.36-4.72,3.54-8.02,3.54s-5.85-1.15-7.95-3.44c-2.1-2.3-3.14-5.15-3.14-8.56s1.05-6.28,3.16-8.57ZM329.81,69.12c.56,2.13,1.67,3.19,3.34,3.19s2.62-.82,3.12-2.45c.5-1.63.74-4.29.74-7.97s-.26-6.32-.78-7.96c-.52-1.64-1.54-2.46-3.06-2.46-1.66,0-2.78,1.06-3.34,3.19-.37,1.42-.55,3.83-.55,7.23s.18,5.85.53,7.23Z"/>
    <path class="cls-2" d="M346.23,71.97c1.01-.08,1.73-.3,2.17-.67.44-.37.66-1.14.66-2.3v-15.99h-2.83v-2.16h2.83v-1.82c0-2.29.36-4.17,1.08-5.64,1.36-2.75,3.87-4.13,7.54-4.13,1.95,0,3.6.44,4.96,1.33,1.35.89,2.03,2.06,2.03,3.52,0,.91-.28,1.65-.85,2.21-.57.56-1.32.84-2.27.84-.78,0-1.46-.26-2.02-.77-.56-.51-.84-1.13-.84-1.85,0-.54.18-1.12.54-1.72.36-.6.54-.96.54-1.09,0-.4-.14-.66-.43-.77-.29-.11-.6-.17-.94-.17-.8,0-1.42.23-1.85.7-.43.46-.65,1.46-.65,3v6.36h4.27v2.16h-4.27v15.1c0,1.7.24,2.74.73,3.12.49.38,1.57.63,3.25.74v1.18h-13.66v-1.18Z"/>
    <path class="cls-2" d="M362.72,52.67v-1.37c.43-.4.97-.87,1.61-1.42.85-.78,1.65-1.59,2.4-2.42,1.49-1.63,2.84-3.38,4.06-5.26h1.25v8.31h4.68v2.16h-4.68v14.79c0,.69.1,1.26.31,1.73.32.72.85,1.08,1.58,1.08.64,0,1.18-.23,1.61-.68.43-.46.86-1.08,1.3-1.88l1.18.58c-.58,1.34-1.26,2.44-2.06,3.29-1.41,1.49-3.13,2.23-5.16,2.23-1.15,0-2.16-.22-3.02-.65-1.66-.83-2.5-2.34-2.51-4.54v-15.94h-2.54Z"/>
  </g>
</svg>