<?xml version="1.0" encoding="UTF-8"?>
<svg id="Layer_1" data-name="Layer 1" xmlns="http://www.w3.org/2000/svg" xmlns:xlink="http://www.w3.org/1999/xlink" version="1.1" viewBox="0 0 240.25 221.46">
  <defs>
    <style>
      .cls-1 {
        fill: url(#linear-gradient);
      }

      .cls-1, .cls-2, .cls-3, .cls-4, .cls-5, .cls-6 {
        stroke-width: 0px;
      }

      .cls-2 {
        fill: url(#linear-gradient-4);
      }

      .cls-3 {
        fill: url(#linear-gradient-2);
      }

      .cls-4 {
        fill: url(#linear-gradient-3);
      }

      .cls-5 {
        fill: url(#linear-gradient-5);
      }

      .cls-6 {
        fill: url(#linear-gradient-6);
      }
    </style>
    <linearGradient id="linear-gradient" x1="132.43" y1="150.05" x2="44.38" y2="62.01" gradientTransform="translate(-32.31 45.25) rotate(-5)" gradientUnits="userSpaceOnUse">
      <stop offset=".51" stop-color="#013a60"/>
      <stop offset=".58" stop-color="#014368"/>
      <stop offset=".69" stop-color="#015d7f"/>
      <stop offset=".83" stop-color="#0287a4"/>
      <stop offset="1" stop-color="#04c1d6"/>
    </linearGradient>
    <linearGradient id="linear-gradient-2" x1="89.64" y1="167.74" x2="89.64" y2="25.16" gradientTransform="translate(-32.31 45.25) rotate(-5)" gradientUnits="userSpaceOnUse">
      <stop offset="0" stop-color="#013a60"/>
      <stop offset=".06" stop-color="#014368"/>
      <stop offset=".15" stop-color="#015d7f"/>
      <stop offset=".27" stop-color="#0287a4"/>
      <stop offset=".41" stop-color="#04c1d6"/>
    </linearGradient>
    <linearGradient id="linear-gradient-3" x1="-365.04" y1="231.16" x2="-453.09" y2="143.12" gradientTransform="translate(-218 -78.93) rotate(-175) scale(1 -1)" xlink:href="#linear-gradient"/>
    <linearGradient id="linear-gradient-4" x1="-407.83" y1="248.86" x2="-407.83" y2="106.27" gradientTransform="translate(-218 -78.93) rotate(-175) scale(1 -1)" xlink:href="#linear-gradient-2"/>
    <linearGradient id="linear-gradient-5" x1="57.66" y1="74.97" x2="179.23" y2="74.97" gradientUnits="userSpaceOnUse">
      <stop offset=".41" stop-color="#013a60"/>
      <stop offset="1" stop-color="#04c1d6"/>
    </linearGradient>
    <linearGradient id="linear-gradient-6" x1="180.81" y1="75.88" x2="59.24" y2="75.88" xlink:href="#linear-gradient-5"/>
  </defs>
  <g>
    <path class="cls-1" d="M37.82,82.21c-.03-.39-21.78,15.02-24.31,35.58-2.53,20.56,13.85,32.37,21.14,37.64,7.28,5.27,61.96,46.93,61.96,46.93l3.87-9.78-7.12-19.84-30.61-28.94-28.52-36.6,3.59-24.98Z"/>
    <path class="cls-3" d="M53.59,62.98s-14.31,14.9-10.44,33.58c2.77,13.66,7.83,17.55,18.96,26.29,11.13,8.73,23.23,16.6,29.49,22.22s29.2,29.33,5.01,57.29c-.06-20.2-18.29-33.56-27.68-40.48,0,0-20.56-13.03-28.67-21.76s-25.52-29.25-7.58-55.09c4.97-6.21,20.9-22.03,20.9-22.03Z"/>
  </g>
  <g>
    <path class="cls-4" d="M200.37,82.21c.03-.39,21.78,15.02,24.31,35.58,2.53,20.56-13.85,32.37-21.14,37.64-7.28,5.27-61.96,46.93-61.96,46.93l-3.87-9.78,7.12-19.84,30.61-28.94,28.52-36.6-3.59-24.98Z"/>
    <path class="cls-2" d="M184.6,62.98s14.31,14.9,10.44,33.58c-2.77,13.66-7.83,17.55-18.96,26.29-11.13,8.73-23.23,16.6-29.49,22.22-6.26,5.62-29.2,29.33-5.01,57.29.06-20.2,18.29-33.56,27.68-40.48,0,0,20.56-13.03,28.67-21.76,8.11-8.74,25.52-29.25,7.58-55.09-4.97-6.21-20.9-22.03-20.9-22.03Z"/>
  </g>
  <path class="cls-5" d="M57.66,116.84c5.1-.04,8.42-.95,9.94-2.72,1.53-1.77,2.29-4.42,2.29-7.95v-63.66c0-3.64-.87-6.03-2.62-7.18-1.75-1.15-4.84-1.9-9.29-2.24v-3.4h33.76l26.37,62.03h1.11l26.21-62.03h33.78v3.4c-4.54.35-7.63,1.18-9.29,2.51-1.66,1.32-2.49,4.57-2.49,9.73v59.28c0,4.93.83,8.16,2.49,9.68,1.66,1.53,4.75,2.38,9.29,2.55v3.4h-44.49v-3.4c3.97-.13,6.96-.8,8.96-2,2.01-1.2,3.01-3.83,3.01-7.88V41.47h-.98l-32.84,78.77h-3.59l-33.18-77.2h-.59v60.59c0,4.47.83,7.74,2.49,9.8,1.66,2.06,5.32,3.2,10.99,3.42v3.4h-31.34v-3.4Z"/>
  <path class="cls-6" d="M59.24,117.76c5.1-.04,8.42-.95,9.94-2.72,1.53-1.77,2.29-4.42,2.29-7.95v-63.66c0-3.64-.87-6.03-2.62-7.18-1.75-1.15-4.84-1.9-9.29-2.24v-3.4h33.76l26.37,62.03h1.11l26.21-62.03h33.78v3.4c-4.54.35-7.63,1.18-9.29,2.51-1.66,1.32-2.49,4.57-2.49,9.73v59.28c0,4.93.83,8.16,2.49,9.68,1.66,1.53,4.75,2.38,9.29,2.55v3.4h-44.49v-3.4c3.97-.13,6.96-.8,8.96-2,2.01-1.2,3.01-3.83,3.01-7.88V42.39h-.98l-32.84,78.77h-3.59l-33.18-77.2h-.59v60.59c0,4.47.83,7.74,2.49,9.8,1.66,2.06,5.32,3.2,10.99,3.42v3.4h-31.34v-3.4Z"/>
</svg>