<?xml version="1.0" encoding="UTF-8"?>
<svg id="Layer_1" data-name="Layer 1" xmlns="http://www.w3.org/2000/svg" xmlns:xlink="http://www.w3.org/1999/xlink" version="1.1" viewBox="0 0 143.6 23.2">
  <defs>
    <style>
      .cls-1 {
        fill: #04c1d6;
      }

      .cls-1, .cls-2, .cls-3, .cls-4, .cls-5, .cls-6, .cls-7 {
        stroke-width: 0px;
      }

      .cls-2 {
        fill: url(#linear-gradient);
      }

      .cls-3 {
        fill: url(#linear-gradient-4);
      }

      .cls-4 {
        fill: url(#linear-gradient-2);
      }

      .cls-5 {
        fill: url(#linear-gradient-3);
      }

      .cls-6 {
        fill: url(#linear-gradient-5);
      }

      .cls-7 {
        fill: url(#linear-gradient-6);
      }
    </style>
    <linearGradient id="linear-gradient" x1="-25.4" y1="827.9" x2="-35.7" y2="817.6" gradientTransform="translate(-33.5 -807.4) rotate(-5)" gradientUnits="userSpaceOnUse">
      <stop offset=".5" stop-color="#013a60"/>
      <stop offset=".6" stop-color="#014368"/>
      <stop offset=".7" stop-color="#015d7f"/>
      <stop offset=".8" stop-color="#0287a4"/>
      <stop offset="1" stop-color="#04c1d6"/>
    </linearGradient>
    <linearGradient id="linear-gradient-2" x1="-30.4" y1="830" x2="-30.4" y2="813.3" gradientTransform="translate(-33.5 -807.4) rotate(-5)" gradientUnits="userSpaceOnUse">
      <stop offset="0" stop-color="#013a60"/>
      <stop offset="0" stop-color="#014368"/>
      <stop offset=".2" stop-color="#015d7f"/>
      <stop offset=".3" stop-color="#0287a4"/>
      <stop offset=".4" stop-color="#04c1d6"/>
    </linearGradient>
    <linearGradient id="linear-gradient-3" x1="-1058.8" y1="862.2" x2="-1069.1" y2="851.9" gradientTransform="translate(-964.7 -931.5) rotate(-175) scale(1 -1)" gradientUnits="userSpaceOnUse">
      <stop offset=".5" stop-color="#013a60"/>
      <stop offset=".6" stop-color="#014368"/>
      <stop offset=".7" stop-color="#015d7f"/>
      <stop offset=".8" stop-color="#0287a4"/>
      <stop offset="1" stop-color="#04c1d6"/>
    </linearGradient>
    <linearGradient id="linear-gradient-4" x1="-1063.8" y1="864.2" x2="-1063.8" y2="847.6" gradientTransform="translate(-964.7 -931.5) rotate(-175) scale(1 -1)" gradientUnits="userSpaceOnUse">
      <stop offset="0" stop-color="#013a60"/>
      <stop offset="0" stop-color="#014368"/>
      <stop offset=".2" stop-color="#015d7f"/>
      <stop offset=".3" stop-color="#0287a4"/>
      <stop offset=".4" stop-color="#04c1d6"/>
    </linearGradient>
    <linearGradient id="linear-gradient-5" x1="6.9" y1="827" x2="21.2" y2="827" gradientTransform="translate(0 -820)" gradientUnits="userSpaceOnUse">
      <stop offset=".4" stop-color="#013a60"/>
      <stop offset="1" stop-color="#04c1d6"/>
    </linearGradient>
    <linearGradient id="linear-gradient-6" x1="21.4" y1="827.1" x2="7.1" y2="827.1" gradientTransform="translate(0 -820)" gradientUnits="userSpaceOnUse">
      <stop offset=".4" stop-color="#013a60"/>
      <stop offset="1" stop-color="#04c1d6"/>
    </linearGradient>
  </defs>
  <g>
    <g>
      <path class="cls-2" d="M4.6,7.8s-2.5,1.8-2.8,4.2c-.3,2.4,1.6,3.8,2.5,4.4.8.6,7.2,5.5,7.2,5.5l.4-1.1-.8-2.3-3.6-3.4-3.3-4.3.4-2.9h0Z"/>
      <path class="cls-4" d="M6.5,5.6s-1.7,1.7-1.2,3.9c.3,1.6.9,2.1,2.2,3.1,1.3,1,2.7,1.9,3.4,2.6s3.4,3.4.6,6.7c0-2.4-2.1-3.9-3.2-4.7,0,0-2.4-1.5-3.3-2.5-1-1-3-3.4-.9-6.4.6-.7,2.4-2.6,2.4-2.6h0Z"/>
    </g>
    <g>
      <path class="cls-5" d="M23.6,7.8s2.5,1.8,2.8,4.2c.3,2.4-1.6,3.8-2.5,4.4-.9.6-7.2,5.5-7.2,5.5l-.5-1.1.8-2.3,3.6-3.4,3.3-4.3-.4-2.9h0Z"/>
      <path class="cls-3" d="M21.8,5.6s1.7,1.7,1.2,3.9c-.3,1.6-.9,2.1-2.2,3.1-1.3,1-2.7,1.9-3.5,2.6-.7.7-3.4,3.4-.6,6.7,0-2.4,2.1-3.9,3.2-4.7,0,0,2.4-1.5,3.4-2.5s3-3.4.9-6.4c-.6-.7-2.4-2.6-2.4-2.6h0Z"/>
    </g>
    <path class="cls-6" d="M6.9,11.9c.6,0,1-.1,1.2-.3.2-.2.3-.5.3-.9V3.2c0-.4-.1-.7-.3-.8-.2-.1-.6-.2-1.1-.3v-.4h3.9l3.1,7.3h.1l3.1-7.2h4v.4c-.5,0-.9.1-1.1.3-.2.2-.3.5-.3,1.1v6.9c0,.6.1.9.3,1.1s.6.3,1.1.3v.4h-5.2v-.4c.5,0,.8,0,1.1-.2.2-.1.4-.4.4-.9V3.1h-.1l-3.8,9.2h-.4l-3.9-9h0v7.1c0,.5.1.9.3,1.1.2.2.6.4,1.3.4v.4h-3.7v-.4h0Z"/>
    <path class="cls-7" d="M7.1,12c.6,0,1-.1,1.2-.3s.3-.5.3-.9V3.3c0-.4-.1-.7-.3-.8-.2-.1-.6-.2-1.1-.3v-.4h3.9l3.1,7.2h.1l3.1-7.2h4v.4c-.5,0-.9.1-1.1.3-.2.2-.3.5-.3,1.1v6.9c0,.6.1.9.3,1.1s.6.3,1.1.3v.4h-5.2v-.4c.5,0,.8,0,1-.2.2-.1.4-.4.4-.9V3.2h-.1l-3.8,9.2h-.4l-3.9-9h0v7.1c0,.5.1.9.3,1.1.2.2.6.4,1.3.4v.4h-3.7v-.4h0Z"/>
  </g>
  <g>
    <path class="cls-1" d="M29.9,15.3c.3,0,.6-.1.7-.2.2-.2.3-.5.3-.9v-5.5c0-.4,0-.7-.2-.8-.1-.1-.4-.2-.8-.3v-.4h3.6v1.3c.3-.4.6-.7.9-1,.5-.4,1.1-.6,1.8-.6s1.3.2,1.8.5c.2.2.5.5.7,1h.1c.4-.4.7-.8,1-1,.5-.4,1.1-.5,1.7-.5s1.2.2,1.7.6c.5.4.8,1.1.8,2v4.7c0,.4,0,.7.2.8.1.1.4.2.7.2v.4h-4.5v-.4c.3,0,.6-.1.7-.3.1-.1.2-.4.2-.8v-4.5c0-.5,0-.9-.2-1.1-.1-.3-.4-.4-.8-.4s-.7.1-1,.4c-.4.3-.5.5-.5.6v5c0,.4,0,.7.2.8.1.1.4.2.7.3v.4h-4.4v-.4c.3,0,.6-.1.7-.2.1-.1.2-.4.2-.8v-4.5c0-.5,0-.9-.2-1.1-.1-.3-.4-.4-.8-.4s-.7.2-1.1.5c-.3.3-.5.5-.5.6v5c0,.4,0,.7.2.8.1.1.3.2.7.3v.4h-4.5v-.4Z"/>
    <path class="cls-1" d="M47,12c.8-.5,2.1-1,3.8-1.5v-1.4c0-.6-.1-1-.4-1.2-.2-.3-.7-.4-1.3-.4s-.6,0-.8.2c-.2.1-.3.3-.3.5s0,.1,0,.2c0,0,0,.1.1.2h.1c0,.2.2.3.2.5,0,.1,0,.3,0,.4,0,.4-.1.6-.4.8-.2.2-.5.3-.8.3s-.7-.1-.9-.3-.4-.5-.4-.9c0-.7.3-1.3,1-1.7s1.5-.6,2.5-.6,2,.2,2.7.6c.7.4,1.1,1.2,1.1,2.3v4.5c0,.1,0,.2.1.3,0,0,.1.1.2.1s.1,0,.2,0c0,0,.1-.1.3-.2l.3.4c-.4.4-.8.7-1.2.9-.3.1-.6.2-.9.2-.6,0-1-.2-1.2-.5-.1-.2-.3-.5-.3-.8-.5.5-1.1.9-1.8,1.1-.4.1-.8.2-1.2.2s-1-.2-1.4-.5c-.4-.3-.7-.8-.7-1.5s.4-1.5,1.2-2ZM50.2,14.4c.1-.1.3-.3.5-.5v-2.7c-.5.1-.9.3-1.3.6-.6.4-1,1-1,1.7s0,.7.3.9c.2.2.4.3.6.3s.6,0,.9-.3Z"/>
    <path class="cls-1" d="M54.9,15.3c.3,0,.6-.2.7-.3.1-.1.2-.4.2-.8V4.6c0-.4,0-.7-.2-.8-.1-.1-.4-.2-.7-.3v-.4h3.5v8.1l2.4-2.4c.1-.1.2-.3.3-.4,0-.1,0-.2,0-.3,0-.2,0-.3-.3-.4-.2,0-.5-.1-.9-.1v-.4h4v.4c-.4,0-.7.1-.9.2-.4.2-.8.4-1.2.8l-1.5,1.5,3.6,5c0,.1.1.2.2.2,0,0,.2,0,.3,0v.4h-4.4v-.4c.3,0,.5,0,.6-.1.1,0,.2-.1.2-.3s0-.1,0-.3c0-.1-.2-.3-.4-.6l-1.8-2.5-.4.5v2.1c0,.4,0,.7.2.8.1.1.4.2.8.3v.4h-4.5v-.4Z"/>
    <path class="cls-1" d="M66.6,8.1c.8-.8,1.7-1.2,2.8-1.2s1.2.2,1.7.5c.5.3,1,.8,1.3,1.3.2.4.4,1,.5,1.7,0,.3,0,.6,0,.7h-4.8c0,.8.2,1.4.4,2,.4,1,1,1.5,1.9,1.5s.9-.1,1.2-.4c.2-.2.5-.4.9-.8l.4.3c-.6,1-1.3,1.6-2,2-.5.2-1.1.4-1.7.4-.9,0-1.8-.4-2.6-1.1-.8-.7-1.2-1.9-1.2-3.5s.4-2.6,1.2-3.4ZM70.6,10.4c0-1.1,0-1.9-.3-2.3-.2-.4-.5-.7-1-.7s-.8.3-1,.8c-.2.5-.3,1.2-.3,2.2h2.5Z"/>
    <path class="cls-1" d="M73.7,15.3c.3,0,.6-.1.7-.2.2-.2.3-.5.3-.9v-5.5c0-.4,0-.6-.2-.8-.1-.1-.4-.2-.8-.3v-.4h3.6v7.1c0,.4,0,.7.2.8.1.1.4.2.7.3v.4h-4.5v-.4ZM75,3.2c.3-.3.6-.4,1-.4s.7.1,1,.4c.3.3.4.6.4,1s-.1.7-.4,1c-.3.3-.6.4-1,.4s-.7-.1-1-.4c-.3-.3-.4-.6-.4-1s.1-.7.4-1Z"/>
    <path class="cls-1" d="M78.9,7.9v-.5c.2-.2.4-.3.6-.5.3-.3.6-.6.9-.9.6-.6,1.1-1.3,1.5-2h.5v3.2h1.8v.8h-1.8v5.6c0,.3,0,.5.1.7.1.3.3.4.6.4s.4,0,.6-.3c.2-.2.3-.4.5-.7l.4.2c-.2.5-.5.9-.8,1.3-.5.6-1.2.9-2,.9s-.8,0-1.2-.2c-.6-.3-1-.9-1-1.7v-6.1h-1Z"/>
    <path class="cls-1" d="M89.9,7.9v-.5c.2-.2.4-.3.6-.5.3-.3.6-.6.9-.9.6-.6,1.1-1.3,1.5-2h.5v3.2h1.8v.8h-1.8v5.6c0,.3,0,.5.1.7.1.3.3.4.6.4s.4,0,.6-.3c.2-.2.3-.4.5-.7l.4.2c-.2.5-.5.9-.8,1.3-.5.6-1.2.9-2,.9s-.8,0-1.2-.2c-.6-.3-1-.9-1-1.7v-6.1h-1Z"/>
    <path class="cls-1" d="M97.4,8.1c.8-.8,1.7-1.2,2.8-1.2s1.2.2,1.7.5c.5.3,1,.8,1.3,1.3.2.4.4,1,.5,1.7,0,.3,0,.6,0,.7h-4.8c0,.8.2,1.4.4,2,.4,1,1,1.5,1.9,1.5s.9-.1,1.2-.4c.2-.2.5-.4.9-.8l.4.3c-.6,1-1.3,1.6-2,2-.5.2-1.1.4-1.7.4-.9,0-1.8-.4-2.6-1.1-.8-.7-1.2-1.9-1.2-3.5s.4-2.6,1.2-3.4ZM101.4,10.4c0-1.1,0-1.9-.3-2.3-.2-.4-.5-.7-1-.7s-.8.3-1,.8c-.2.5-.3,1.2-.3,2.2h2.5Z"/>
    <path class="cls-1" d="M111,7.4c.6.4.9.9.9,1.5s-.1.6-.3.8c-.2.2-.5.4-.9.4s-.4,0-.6-.2c-.3-.2-.5-.5-.5-1.1s0-.1,0-.2c0-.1,0-.2,0-.3,0-.3,0-.6-.2-.7-.2-.1-.3-.2-.5-.2-.6,0-1,.3-1.2,1-.2.6-.4,1.4-.4,2.2,0,1.2.2,2.2.7,3,.5.8,1.1,1.2,1.9,1.2s.9-.1,1.3-.3c.2-.1.5-.4.8-.7l.3.3c-.6.8-1.3,1.4-2.1,1.8-.4.2-.9.2-1.4.2-1.2,0-2.2-.4-3-1.3-.8-.9-1.1-1.9-1.1-3.2s.4-2.4,1.2-3.3c.8-.9,1.9-1.4,3.2-1.4s1.5.2,2,.6Z"/>
    <path class="cls-1" d="M112.8,15.3c.3,0,.6-.1.8-.3.2-.1.2-.4.2-.9V4.6c0-.4,0-.6-.2-.8-.1-.2-.4-.3-.8-.3v-.4h3.6v5.3c.4-.5.8-.8,1.2-1.1.4-.3.9-.4,1.4-.4s1.3.2,1.8.6c.5.4.7,1.1.7,2.1v4.5c0,.4,0,.7.2.8.1.1.4.2.7.3v.4h-4.4v-.4c.3,0,.6-.2.7-.3.1-.1.2-.4.2-.8v-4.5c0-.4,0-.7-.1-1-.1-.4-.4-.6-.9-.6s-.7.1-1,.4c-.3.3-.5.5-.5.6v5c0,.4,0,.7.2.8.1.1.4.2.7.3v.4h-4.5v-.4Z"/>
    <path class="cls-1" d="M123.2,15.3c.3,0,.6-.1.8-.3.2-.1.2-.4.2-.9v-5.5c0-.4,0-.6-.2-.8-.1-.1-.4-.2-.8-.3v-.4h3.6v1.3c.3-.5.7-.8,1.1-1.1.5-.3,1-.4,1.5-.4.8,0,1.4.2,1.9.6.4.4.7,1.1.7,2.2v4.5c0,.4,0,.7.2.8.1.1.4.2.7.2v.4h-4.4v-.4c.3,0,.6-.2.7-.3.1-.1.2-.4.2-.8v-4.5c0-.4,0-.7-.1-1-.1-.4-.4-.6-.9-.6s-.6.1-.9.4c-.3.2-.5.5-.6.7v5c0,.4,0,.7.2.8.1.1.4.2.7.3v.4h-4.5v-.4Z"/>
    <path class="cls-1" d="M135,8.2c.8-.9,1.8-1.3,3-1.3s2.3.4,3,1.3c.8.9,1.2,2,1.2,3.2s-.4,2.3-1.2,3.2c-.8.9-1.8,1.4-3.1,1.4s-2.2-.4-3-1.3c-.8-.9-1.2-2-1.2-3.3s.4-2.4,1.2-3.3ZM136.7,14.2c.2.8.6,1.2,1.3,1.2s1-.3,1.2-.9c.2-.6.3-1.6.3-3s0-2.4-.3-3c-.2-.6-.6-.9-1.2-.9s-1.1.4-1.3,1.2c-.1.5-.2,1.5-.2,2.8s0,2.2.2,2.8Z"/>
  </g>
</svg>